/* XPM */
static char *_f9f270f3f2c4e4c87fb30fe5dbefc4bohsdt9mvMKIv1UqW[] = {
/* columns rows colors chars-per-pixel */
"50 50 193 2 ",
"   c #733C1D",
".  c #5D3325",
"X  c #603524",
"o  c #6B3A26",
"O  c #6A3729",
"+  c #6B3C2C",
"@  c #663B2B",
"#  c #723D26",
"$  c #7B3F23",
"%  c #763E2B",
"&  c #7A3E2C",
"*  c #663F30",
"=  c #6D3E32",
"-  c #733E32",
";  c #783E30",
":  c #713F38",
">  c #6A402F",
",  c #7C4125",
"<  c #73412C",
"1  c #7B422D",
"2  c #7F4C2F",
"3  c #6C4233",
"4  c #6D463D",
"5  c #6E493D",
"6  c #734334",
"7  c #7C4433",
"8  c #774934",
"9  c #7C4A35",
"0  c #74453A",
"q  c #7A453A",
"w  c #74493D",
"e  c #7C4A3C",
"r  c #76513E",
"t  c #7D523F",
"y  c #6F4640",
"u  c #6E4941",
"i  c #744741",
"p  c #794742",
"a  c #744B43",
"s  c #7A4B43",
"d  c #734E48",
"f  c #7A4F48",
"g  c #7C5143",
"h  c #76514B",
"j  c #7E5949",
"k  c #813F25",
"l  c #824226",
"z  c #84452B",
"x  c #8A472D",
"c  c #844A2C",
"v  c #8A4A2E",
"b  c #93492D",
"n  c #8B502E",
"m  c #834533",
"M  c #8C4633",
"N  c #844A34",
"B  c #8B4C34",
"V  c #82463A",
"C  c #844B3B",
"Z  c #8B4D3A",
"A  c #934D35",
"S  c #994E34",
"D  c #924E3A",
"F  c #875135",
"G  c #8D5136",
"H  c #84513D",
"J  c #8D523C",
"K  c #935136",
"L  c #9B5236",
"P  c #94533B",
"I  c #9A543B",
"U  c #955A3D",
"Y  c #9A593E",
"T  c #824C42",
"R  c #8C4E43",
"E  c #835344",
"W  c #8B5542",
"Q  c #875A45",
"!  c #8C5A46",
"~  c #865549",
"^  c #825D4D",
"/  c #8D5C4C",
"(  c #935442",
")  c #9B5640",
"_  c #945B43",
"`  c #9A5B42",
"'  c #925248",
"]  c #925E49",
"[  c #9C5E4A",
"{  c #8D5651",
"}  c #845E51",
"|  c #8C5C50",
" . c #925D54",
".. c #8D624D",
"X. c #906147",
"o. c #9B6346",
"O. c #93614B",
"+. c #9C644B",
"@. c #866152",
"#. c #8D6252",
"$. c #936354",
"%. c #9C6651",
"&. c #9B6956",
"*. c #956659",
"=. c #986759",
"-. c #946A5B",
";. c #9B6D5B",
":. c #9E715E",
">. c #A16347",
",. c #A4644A",
"<. c #A8664C",
"1. c #A46B4D",
"2. c #A36B54",
"3. c #A66E5A",
"4. c #A86D5B",
"5. c #AB7255",
"6. c #A4735D",
"7. c #AE745C",
"8. c #AA785F",
"9. c #B4765A",
"0. c #B67A5E",
"q. c #B97A5E",
"w. c #936E62",
"e. c #967164",
"r. c #9D7261",
"t. c #A47563",
"y. c #AA7664",
"u. c #A57A65",
"i. c #AB7A64",
"p. c #A57768",
"a. c #AB7768",
"s. c #A77E6A",
"d. c #AD7B6B",
"f. c #B17761",
"g. c #B47C64",
"h. c #BC7D63",
"j. c #B47D6A",
"k. c #B87F6A",
"l. c #AF7A74",
"z. c #C17F65",
"x. c #AD826C",
"c. c #B68164",
"v. c #BA8366",
"b. c #B4826C",
"n. c #B9816D",
"m. c #BE856E",
"M. c #BB836B",
"N. c #AD8372",
"B. c #B08572",
"V. c #B48374",
"C. c #BB8671",
"Z. c #B58974",
"A. c #BC8973",
"S. c #B68579",
"D. c #B78A7A",
"F. c #BB8A79",
"G. c #BC907A",
"H. c #C18566",
"J. c #C2866B",
"K. c #C4896D",
"L. c #C08773",
"P. c #C18D77",
"I. c #C38A73",
"U. c #C98F76",
"Y. c #C48D79",
"T. c #C49175",
"R. c #CE9377",
"E. c #C4917C",
"W. c #CC927B",
"Q. c #CC987B",
"!. c #D39B7D",
"~. c #C29180",
"^. c #C79883",
"/. c #CD9B84",
"(. c #C79D8C",
"). c #CC9E8C",
"_. c #D39C83",
"`. c #D29D89",
"'. c #CFA084",
"]. c #C6A08D",
"[. c #CCA18C",
"{. c #D5A184",
"}. c #DBA687",
"|. c #D4A38B",
" X c #DAA48A",
".X c #DDA88B",
"XX c #CDA492",
"oX c #D4A490",
"OX c #DCAC95",
"+X c #D5AE9B",
"@X c #DFAE9D",
"#X c #E1AB8D",
"$X c #E1AD95",
/* pixels */
"x B S S S I S S L Y L K.,.J ( ( P ` ) Y Y P P P i.7.P ) S P ( ( W N V q q { l.- w 0 p s p p i d a d ",
"v A A A D I S I L U n K.+.J ( R ( ` _ P ` J J J 2.7.Y Y I D ( ( Z V V q :  .l.p p 0 p p p p i u i a ",
"A K B K S I D I L Y K v.[ R ' ' Z W J ( W J Z & 2.7.K I A A P P Z Z V V k { l.: q 0 p e p p a 4 i w ",
"Y K P K P I S I L Y G v.[ C R R W C Z W J N C m 2.7.G Y Y Y P ( D Z V e p  .l.: s q p e p s a 4 s h ",
"N N J N m B B B n n c c.F # 1 < 1 1 1 9 9 & & % +.7.B B B B B N 1 1 + O @ ~ t.@ - + > > 3 > 3 4 3 3 ",
"M.n.n.k.k.m.C.J.v.v.v.!.A.b.C.g.j.C.n.n.M.k.k.j.W._.U.U.L.L.C.Y.A.P.A.A.F.~.oXn.b.b.x.B.Z.N.S.D.B.B.",
":.;.^.V.3.6.y.6.i.i.8.x.u.x.t.A._.8.k.j.f.f.9.6.3.3.4.6.6.).b.b.n.n.n.C.L.m.g.g.g.j._.Z.s.x.g.k.x.8.",
"> . r./ O 6 6 6 < 3 > 3 > 3 > ..f.z B B B N m m m 7 7 8 9 b.3 6 < < m N m B A B F F 0.9 o < < 1 , , ",
"8 6 u.-.e C s f s i g a i g i $.g.G ) P ( ( D R C R R V ~ D.e e C V Z ( ( ( ` Y ` _ n.] C C N R F c ",
"0 + u.:.e e s s i i f i i f w *.j.Z ( D D D Z Z Z V T q ~ S.e 9 9 m Z Z P I P P ( ( n.W 7 e m M B v ",
"6 + r.-.q s s s s i i a a f i =.j.B ) Z ( D ( Z T V T p ~ S.e C m 9 B Z P P Y Y Y J j.W 9 e m N G v ",
"6 3 r.-.q e p s w s a i p a w =.j.B ) D D D D C V V T q g D.e C m m B P P A P Y K J k.W 8 V m M B v ",
"- = r.$.6 e s s i d p p a d 4 =.g.B P P D D R V C C T e T S.q C N N M D P A L L I J g.W 7 m m Z B v ",
"6 + r.#.- e s i w d s a i a 6 *.j.N P P D Z D Z C T T T ~ V.7 C Z M Z K A L A I I G j.W 9 C Z D K B ",
"0 = r.$.- q i i i a a i a a i *.j.B ( D D D Z B V C s s ~ V.C C Z B D A A L K Y Y B q.` N Z Z J B v ",
"0 - t./ 6 e s e w s i i w i w $.j.B P Z Z P Z Z V e e q ~ V.C R P P D P I K I I I A g._ Z W S P v v ",
"e < t.$.8 q e 0 8 w w w w s s -.i.c U F K P J J N 9 e e E j.W ( P A P G I I U K U G v.o.J I J I F B ",
"e 6 t.O.> < 0 9 e 8 t 8 5 8 8 &.g.2 F N J H J H 9 e g w e V.W Z P K I G G U K U U F j.` N F F P F F ",
"`./.$X|.Q.|.|._./.`./.).[.'.).|.OX'.'.{. X|.|.|.[.[.].(.XX$X`._.!.!.!.!.!.!.}.!.}.{.#X_.{.{. X X XoX",
"] ! O.O.+.+.X._ ` +.X.T.8...&.&.O.O.X.X.O...! Q x.u.Q ..| ~ [ +.1.` Y _ X.1.v.U o._ ] ` +._ ] ! Q Q ",
"9 9 m Z B B G P K U U c.! 8 C C H N e m e C 9 6 ;.$.- q V V Z D M P P I I ,.h.k B x m M m m ; ; 6 - ",
"C N Z J G K I Y K Y U M.X.N H C E 9 C e e 7 9 6 r.=.- R V M ( S S I I I I ,.z.l A M M M Z m V ; 7 0 ",
"V m N Z P A L I I Y P b.! 0 e s e q e t s w g 5 w.*.: R k m M D S L I I I <.z.z x b M M Z V m V q q ",
"V V m D P A L I I I J n.W 0 q e 0 0 w w s a d 5 e.-.: T T M D D A L ) I K ,.h.k A x M M M V ; ; 7 6 ",
"Z N M B K K S L L P Z j.W 0 w w 5 5 u r a a d u e.w.6 C m B D A S S S I A ,.h.x B M M B M m ; & - - ",
"m m N B A A S S L Y J j.H 6 6 0 w a d d u a h u w.-.6 9 N M D S L A P ) S ,.q.z B B B m m m & ; - = ",
"V B Z P K L L L L I J i.H 6 w 4 3 u d d d d h u w.-.0 N B D D S P A L ) D ,.q.$ x G B c m m 7 7 6 6 ",
"B Z P B A S L L L L G n.E 0 i y 4 u u u u d h 4 w.-.9 H Z D D D D L I I A >.0.z B B m B N m & & 1 6 ",
"P B I A A I L L L L K c.Q 5 d u u d u u a u d 4 -.;.N ( P S P ( L P I L K <.9.l x A B M M m m m 1 1 ",
"A K A K B K K b K U F c.t 3 5 5 5 5 5 d 5 5 5 3 -.:.N F B A Z S K K A P K ` q.l M B B B m m m & m 1 ",
"o.o.o.o.o.o.1.o.+.1.X.G...r h j j j @.j ^ ^ @.j s.b.] +.+.+.2.[ o.1.>.1.,.5.K.G _ ` ( +.%.+.[ ] ] ] ",
"!.Q..X#X.X}._.}.#X#X.XOX+X].+X+X+X].XXXX].(.].[.]./.^.Q./.$X`._.!.!.!.R.!.!.Q.T.R.R. X X/.[.).)./.).",
"K G 5.o.c c c F B c m 1 8 5 > ..s.e t H H N C H 8 8 N 9 e d.8 9 z 1 B B B G G G P F f.J > 8 s w 8 w ",
"U K 0.o.c v B v B m m 6 8 3 = #.i.C N H J N Z H m 9 e q e l.e N N m P ( K P I K Y P n.! 9 e s f d a ",
"Y U q.o.z F v x B N m 1 7 0 4 $.p.9 W Z J Z N C m 7 e 9 C d.e C m m Z P Z K P P Y J n.[ e s s f a a ",
"Y K q.` c K v x c c m 7 7 0 = | t.9 J Z Z N N N N 8 7 q s a.e V m m B Z S K L ` I K v.] 9 s p p i a ",
"I G 9.` c B x v z M m ; 6 6 -  .y.N Z Z C Z Z m 9 7 7 0 s d.e m 9 x B D P D L P K K f.] q e a a a a ",
"P A q.>.c n v v z M & ; 7 - =  .y.9 W Z Z M Z V k 7 7 7 e d.q 9 m m B D P K D S I A k.] q e s s u u ",
"I G 0.Y z F v z z M k ; ; - - | a.m R D Z M N m q 7 6 6 s j.q C N B M B A A P I Y G k.J 0 q s a i a ",
"I B 9.U z v K x z x m k ; 7 6  .j.N D Z D Z Z N m m 7 q e a.C N J B P P P L L L I B m.W - i p a i 4 ",
"Y v q.U l v B v x B M 1 1 7 - $.i.Z Z Z Z B M N 9 7 7 7 e d.C J Z A K A S S K I Y K b.W 6 w a a i i ",
"Y G 0.Y c G B B x N m m & V 6 =.j.9 J Z N B J C m 7 e 8 E b.J J D P I K Y Y I I Y P c.H 8 r f a s f ",
"G c 7.G , l l c , , , , # 7 o ! i.1 8 2 9 8 9 < > < + o 8 g.F N c B v c B B N B J F g.e + 6 = 3 6 3 ",
"v.g.R.M.5.5.9.0.g.v.M.g.9.g.i.Y./.x.i.M.m.b.A.S.x.x.s.x.b.{.c.q.q.v.H.H.v.v.v.b.C.c./.i.6.;.r.t.t.t.",
"m.L.U.m.I.R.K.J.K.H.K.#XK.c.c.b.n.b.C.b.x.d.N.l.].G.s.x.A.v.J.M.v.q.c.H.q.I. XC.A.A.L.L.E.E.E.F.A.C.",
"< % & N N M v A G G n v.N   , , # % , o o @ @ . #.#.o 1 , l , c c c n x z U 8.o % < & 7 N m F N B N ",
"V C Z ( P D L Y Y Y U v.G c c x m m m 7 9 7 w : ;.O.< N x A b D n A b S A ` j.9 e C M Z ( D P ` ` ) ",
"C m Z Z D S I Y Y L U K.K l l z M m k m 7 % 0 = *.$.% c x x M M A b b b x [ j.q C C V Z D D P P I S ",
"7 m V D D D I I S ) Y I.P l x z z z m 7 7 q : = *.$.& m x b b A S b b S x ` g.7 V N 7 M D D ( I I I ",
"7 V Z D D D ) I I I S J.I l x z z z m 7 ; 7 : = *. .& M M M M A A v b b x ` j.q V m V Z Z D D I I I "
};
