/* XPM */
static char *_2537d407ac345a2f0d7ac382f23a37be5eLZToTXQInmVVu[] = {
/* columns rows colors chars-per-pixel */
"50 50 232 2 ",
"   c #171C0D",
".  c #191F12",
"X  c #1D2214",
"o  c #1F2519",
"O  c #202417",
"+  c #22261A",
"@  c #252A1D",
"#  c #282C1F",
"$  c #262D21",
"%  c #292E22",
"&  c #2C3125",
"*  c #2E3329",
"=  c #273024",
"-  c #303427",
";  c #32362B",
":  c #3D4439",
">  c #464E45",
",  c #484E45",
"<  c #475047",
"1  c #4B534A",
"2  c #4F584F",
"3  c #51574F",
"4  c #585F59",
"5  c #5B635B",
"6  c #626963",
"7  c #33799D",
"8  c #4A7293",
"9  c #477496",
"0  c #557B99",
"q  c #5A7E9D",
"w  c #527897",
"e  c #436C8E",
"r  c #667D8D",
"t  c #707F96",
"y  c #557EA1",
"u  c #637FA0",
"i  c #5A869E",
"p  c #62839C",
"a  c #6A899A",
"s  c #7B8C9A",
"d  c #768B96",
"f  c #7C929B",
"g  c #71848F",
"h  c #5C83A3",
"j  c #5A8CA7",
"k  c #538DAD",
"l  c #6284A5",
"z  c #6289A6",
"x  c #6987A9",
"c  c #658CAA",
"v  c #6B8DAB",
"b  c #6C88A6",
"n  c #738DA7",
"m  c #6B93AD",
"M  c #6896A9",
"N  c #7C95A5",
"B  c #739EAC",
"V  c #7697A9",
"C  c #6C94B2",
"Z  c #6C97B6",
"A  c #7196B3",
"S  c #749AB5",
"D  c #7B9BB5",
"F  c #759BBB",
"G  c #7B9DBB",
"H  c #7996B5",
"J  c #78A2AE",
"K  c #7CA4B3",
"L  c #7DA3BD",
"P  c #7BA7B9",
"I  c #6CA2BC",
"U  c #769EC1",
"Y  c #75A2C3",
"T  c #7BA5C4",
"R  c #7AA8CA",
"E  c #7EAED1",
"W  c #82969E",
"Q  c #83989E",
"!  c #89939A",
"~  c #9AAD9F",
"^  c #839AA3",
"/  c #849CAA",
"(  c #8899A6",
")  c #839BB4",
"_  c #829EBA",
"`  c #8B9FB8",
"'  c #929CA2",
"]  c #88A6A9",
"[  c #97A9AA",
"{  c #83A4BD",
"}  c #8BA4BD",
"|  c #84ACBA",
" . c #87A9B5",
".. c #93ADB9",
"X. c #95ACB3",
"o. c #8DB2BD",
"O. c #94B4BD",
"+. c #9BBABC",
"@. c #9CB5B7",
"#. c #9FB5A8",
"$. c #A3ACAA",
"%. c #A8B4AB",
"&. c #A3BDBB",
"*. c #ADBABA",
"=. c #A7BCB6",
"-. c #B1BCBA",
";. c #ABC5BD",
":. c #B5C4BA",
">. c #BCC9BB",
",. c #B6C6B9",
"<. c #BBD0BD",
"1. c #B5C3AB",
"2. c #C4CCB6",
"3. c #C6D1BB",
"4. c #CECEA9",
"5. c #849EC0",
"6. c #84A5C2",
"7. c #85AAC4",
"8. c #8BABC4",
"9. c #84ACCB",
"0. c #8BADCB",
"q. c #84A7C6",
"w. c #93ACC4",
"e. c #91AECA",
"r. c #90A7C0",
"t. c #8BB4C5",
"y. c #8CB1CC",
"u. c #8FB9C8",
"i. c #93B2C5",
"p. c #94BAC5",
"a. c #9CBBC4",
"s. c #94B3CC",
"d. c #9AB5CC",
"f. c #94BACC",
"g. c #9CBBCD",
"h. c #9BB3C4",
"j. c #85B1D0",
"k. c #8CB4D3",
"l. c #8BB8D4",
"z. c #94B5D3",
"x. c #9BB7D2",
"c. c #94BAD5",
"v. c #9BBBD3",
"b. c #9CBDDA",
"n. c #94BCDA",
"m. c #A3BDC5",
"M. c #A2BCCD",
"N. c #A7BAC9",
"B. c #A2BDD4",
"V. c #A2BFD9",
"C. c #A9BCD3",
"Z. c #B0BDD2",
"A. c #98BDE1",
"S. c #9BC2CC",
"D. c #8EC5DB",
"F. c #8DC5D5",
"G. c #95C3D4",
"H. c #9CC3D4",
"J. c #94CAD5",
"K. c #93C5DB",
"L. c #9DC3DA",
"P. c #94CCDC",
"I. c #9BCCDC",
"U. c #99CCD6",
"Y. c #9CD1DE",
"T. c #97D4DD",
"R. c #A7C6C8",
"E. c #B2C5CB",
"W. c #B8C9C6",
"Q. c #BCD3C7",
"!. c #A3C2D3",
"~. c #ABC4D4",
"^. c #ADCAD4",
"/. c #A3C3DB",
"(. c #AAC5DD",
"). c #A4CADB",
"_. c #ACCBDC",
"`. c #A6C9D1",
"'. c #BDCDD6",
"]. c #B2CCDD",
"[. c #BCCDDB",
"{. c #B2C7D4",
"}. c #A6D0DE",
"|. c #BBD1DC",
" X c #AFD1C8",
".X c #97CEE0",
"XX c #9CD2E1",
"oX c #95D2E2",
"OX c #8EC6E0",
"+X c #A4CDE2",
"@X c #ADCCE1",
"#X c #A6C7E3",
"$X c #B2CDE2",
"%X c #B9CCE1",
"&X c #A3D2E1",
"*X c #ADD2E3",
"=X c #B2D3E4",
"-X c #BCD7E7",
";X c #C1CEC7",
":X c #C8D6C7",
">X c #D3DCCB",
",X c #C1CFDC",
"<X c #C2D3DC",
"1X c #CBDADA",
"2X c #D0DFD9",
"3X c #DBE2CE",
"4X c #DCE5DA",
"5X c #DAE5DA",
"6X c #E5E7CE",
"7X c #E0E8DC",
"8X c #CCDBE3",
"9X c #C5D6E5",
"0X c #CDD6E5",
"qX c #CAE0E9",
"wX c #DDE9E4",
"eX c #D4E4EC",
"rX c #DCEAEC",
"tX c #D7E5E6",
"yX c #DDEDF3",
"uX c #D9EBF3",
"iX c #DFF0F5",
"pX c #DFF0F8",
"aX c #E2ECE4",
"sX c #E2EEEC",
"dX c #E4F1EE",
"fX c #E1EFF4",
"gX c #E2F1F6",
"hX c #E4F4F9",
"jX c #E8F6FA",
"kX c #EBFAFE",
"lX c #E8F6FA",
"zX c #F0FFFF",
/* pixels */
"; - - # - % - # % & $ $ % = & * & * & = $ % & & * * * * * ; * * & % o @ $ = = = = $ $ $ @ + $ = ; ; ",
"- - - - - & & % % % $ = & & & % & & = = % % * * * * ; * ; ; * & & = % $ = * = * & = = $ $ @ $ = & ; ",
"- - @ + @ $ @ + + + + + @ $ $ + @ + $ $ @ + + + o + $ $ + $ $ $ + + @ @ o o o o o X X X   . O . $ % ",
"% , *.*.-.-.-.-.*.*.*.*.*.[ N / /  .) ( N f f f N s f f s s d d s f f d s s s a g r r 0 r r g [ > @ ",
"% 1 jXkXjXjXjXjXjXjXjXhXjX-XV.).#X#X)././.)._.).)._.].].@X(.~./.B.V./.+X#X@X(.#X/.b.b.L.z.n.#XzX4 @ ",
"& 1 fXfXyXfXfXfXfXyXuXuXyX].d.v.!.v.f.g.h.f.x.g.g.S.!.!.!.!.B.M.d.f.c.x.x.x.C.d.x.v.B.x.0.0.s.iX4 @ ",
"% 1 fXfXfXlXlXgXfXhXyXrXyXE.{ o.@X!.p.,.,.d.p.t.R.].t.&.2.N.p.g.m.[.a.i.%.%. ...8.8.q.L G C A hX4 + ",
"# 1 lXyXb ,X} ,Xh.M.hXuXiX{...a.b.!.<.R.E.,.&.p.a.g.;.W.E.W.*.m.S./.S.1.;.,.[ m.r.{ { { w.8.} hX5 + ",
"# 1 lX,X` r.r.h.w.w.yXfXhXW.V t.|  .&.y.0.-.@.8.D X.$.) k.{.>.M.!.f.,.;.n.y.[ |.{._ 8.{ w.s.8.gX4 # ",
"# , fXfX8XH 9Xw.{.C.eXgXhXW.a k Z i t.M D d ! b 5.s t p / v.>.W.#X{.:.p.R.p.{.eXz.d.{ q.8.{ _ pX5 # ",
"# , fXlXN.h.[.w.C.C.eXgXhXm.a ] +.7.t.B } ..n ! ( ` ( n ` %Xa.,.W.>.a.f.O.x.[.].f.8.{ L F C Z hX4 @ ",
"# , fX0Xu C.H M.r.r.hXgXhXR.M #.o.E G.!.,X,Xp.:.2.x.c.f.N.,XN.+.4.R.c.f.i.!.x.x.0.F y.U F Z F hX4 @ ",
"# , gX1X) {.{.8X].[.jXyXgXR.] S J J F.o.M.M.&.-.-.;.N.S.p.C.a.,.W.:.m.p.O.v.e.C.8.U x.P F Z Z hX5 % ",
"% 1 fXlXkXjXhXhXkXjXyXyXhX:X] Y I ] P n u n ' b 0.W.;.f.g.p.2.E.b.^.:.i.a.0.@.&.9.9.e.G F c Z hX5 % ",
"# 1 fXgXgXyXfXhXhXhXgXyXlXW.j P I ] ;.S r.[ N V L a.3.C.b.E.-.g.S.p.,.;.A.z.%.@.0.v.8.G F m A jX5 @ ",
"& 1 fXsXsXhXhXfXfXyXgXfXgX{...O.$XU.;.:X;XW.R.g.p.C.+.>.W.W.N.R.a.(.a.W.R.;.#...d.~.L Y S v C jX5 @ ",
"& 1 hXhXsXhXlXfXyXyXyXgXhX(.q.g.]._.U.:X;XL.H.v.^.[.p.m.>.!.!.!.R.%X`.eX2.=.q.r.8.q.q.{ F Z G hX5 # ",
"; 2 fXaX4XhXlXgXyXiXyXyXjX@Xz.V.(.*X*Xf.f.S.v.p.s.{ d.x.x.C.(.(._._.=XuX-Xb.V.z.s././.B.v.x.V.hX5 # ",
"* 2 fXfXdXhXgXlXyXyXyXuXjX_.k.b.H._._.D 0 0 0 0 w l r.M.g.V.!.~._._.).uX].B./.e.6.V.x.z.d.i.x.hX5 # ",
"$ > fXsXaXsXhXhXuXyXfXuXkX$Xk.c.v.9.L t.v 0 l y i G K m e.~.H.P.I.Y.*XeX$Xz.x.s.6.b.z.z.y.8.d.hX5 O ",
"@ 1 yXhXaXhXhXgXhXhXgXyXgX|.z.c.b.j.7.7.m j c z h S { S e.C.L.T.XXXX&XqX$Xx.B.e.6.b.f.z.h.e.x.hX5 # ",
"= 1 yXgXaXgXhXfXyXhXhXuXhX_.k.b.v.9.L { v h m h z D { D h.x.l.oXK.D.P.-X#Xx.B.e.0.z.s.0.8.8.z.jX6 - ",
"% < gXaX4XdXjXfXgXyXuXyXgX-Xc.b.L.T T { C h h h z G 6.L d.G.K.T.#X/.XX-X(.x.B.0.e./.V.b.g.h.m.hX5 % ",
"& < yXhX4XgXhXyXhXhXiXyXhXk.y.x.P T G A C h c c z S { T d.v.D.P.@XqX#X#X#XC.C.x.v.z.j.9.q.T s.jX5 X ",
"@ < fXaXfXhXhXfXgXyXgXhXeXj.|.O.q Z j i i i 7 i h h G C g.L.P.Y.$X9X.X+X@XB.C.#Xk.j.9.R R q.0.hX5 # ",
"X > yXfXaXhXgXfXgXfXgXyXuX9X5X3.@.N i M M e e e C T 6.9 v.H.K.oX.X%XL.+X#XB.x.C.b.x.z.0.0.9.0.hX6 ; ",
"+ , hXaXwXsXhXhXhXgXhXhXiX-Xa.3X=.| o.+.K 9 i e i | { j c.).P.XXXX_.I.&XV.x.e.#XV.V.V.z.9.y.z.hX6 # ",
"% 1 fXfXsXwXhXhXgXiXiXiXhX_.R.:X&.| P P J k k i M =.=.a ;.`.D.oXOXOXoX}.@XB.9.B.#Xb.e.x.x.0.x.hX5 # ",
"; 3 hXaXwXrXfXhXgXhXiXiXhX1X:X:X;X| | +.P k M k B =.&.J 3.>X X X^. XS.).(.k.U 0.@X@X5.5./.l r.jX5 + ",
"; 3 fXgXwXwXfXhXhXiXrXiXhX2X3X3XE.K | +.J j M j M ;.+.M 3.:XR.{.^. X X2.4.&.R 9.V.(.5.x V.5.A jX5 # ",
"- 2 gXfXwXyXfXfXgXiXiXhXpX4X3X3XQ.u.K O.P M M j J &.&.B <.:XQ.{.{.Q.W.2.2.w.Y j.V.b.G v G G ) kX5 - ",
"% 1 gXhXfXfXfXfXyXyXhXpXpX4X6X:X>Xo.B  .P M B M J &.+.J 3.Q. X`.!.G.L..XA.R Y F B.b.H F x q { jX5 % ",
"@ 1 gXfXhXpXyXfXgXhXgXyXpX5X6X>X:Xk j o.J M J M V @.] 7 +.`.P.P.I.XXXX+Xb.l.l.T 8./.8.0.8.{ e.hX5 # ",
"@ , gXuXeXyXfXyXhXgXuXrXpX5X6X>X;. .J  .J a a p p K l.k _.K.K.P.oXP.P.n.n.L.c.l.q.f.x._ x D C.jX5 + ",
"@ < hX9XC.rXfXfXfXwXrXrXtX6X6X>XX.X.B B B h h h h S H.v.!.H.P.U.I.P.XX+Xn.j.y.Y q./.{ x H l 8.kX5 @ ",
"@ 1 gX%XZ.hXyXrXwXtXtX2XsX1XW.N.w.8.f.m M z M l h A g.!.!.F.F.<.R.D..X.XE j.9.Y F b.H q.v.F ) kX5 # ",
"& 1 iX|.Z.gXpXfXsXrX5XtXsX{.V.v.D T S S m v c z l A v.g.!.!.I.;.R.T.XX+Xc.k.j.T q.b.G D z.v ) zX5 O ",
"& 1 gX|.Z.gXsXaX4XwXwXsXaX$Xb.d.6.v.t.z m m i v z c d.g.x.!.U.P.Y.T.T.L.n.k.j.T y.V.d.x x b d.jX5 + ",
"& 1 iX[.N.rX4XsXwXyXsXwXdX(.z.z.8./.f.j C A h m x c d.d.g.!.H.J.I.Y.Y.*XL.k.l.E z.(.V.x.{ s.V.jX5 # ",
"& < iXeX9XyXfXfXgXhXwXaXkX(.z.z.8.b.f.c F V h V c A d.d.g.B.P.U.U.Y.}.*Xb.j.R T x.@XV._ x H C.jX5 @ ",
"% > yXyXyXrXrXgXuXrXsXyXrX_.k.s.8.8.y.h 8 w l w 8 l g.d.d.B.J.P.J.T.}.=Xb.l.j.R x.@Xe.x ) u w.kX5 @ ",
"@ > gX<XE.,X'.,X,X{.'.'.8X$Xy.0.6.6.f.S 8 i A i 8 m x.g.d.d.G.P.J.J.}.=XL.l.9.Y x.@XG r.@Xq.) kX5 # ",
"@ < yXeX'.1X<X,XeX'.1X<XfX$Xz.q.A C D C e w A w e z g.B.B.d.G.J.J.J.}.^.!.y.t.Y z.@XG H d.v _ kX5 # ",
"@ , gX8X<X[.1X<X<X<X8X8XrX$Xz.e.s.f.f.{ { z v z A K B.M.B.h.u.F.F.J.Y.^.g.7.q.Z 9.V.e.x u b d.kX5 # ",
"+ 1 rXgXjXgXhXfXdXgXgXgXfX].x.v.b./._.(.].`.!.`.~.!.!.M.B.h.w.s.f.H.U.!.M.h...} s.x.z.0.6.e.C.hX5 # ",
"O 1 kXkXkXkXzXkXkXkXzXkXzX-X#X#X#X+X*X=X$X$X*X*X_._.}.^.(.~.B.C.(.].=X@X=X$X_.#Xc.k.v././.V.#XzX6 @ ",
"% : %.%.%.%.$.$.$.$.$.$.$.! s d d d f W ^ W Q f Q Q Q ^ W f f s ^ ( / ] / ( ( ( n V N N n ( ( W.3 # ",
"% % + + @ O O X X   .     . X . . O O + + + O + o O @ O + + + o O X X + + @ $ @ @ % @ @ X + + + # - ",
"* & ; & - & % % % % # # # # @ # @ # # # @ @ @ % $ $ % % % % % $ $ @ % % & * * % % * % % $ @ % & % & ",
"& % - & % @ @ % @ @ + + + + + + O O O + @ + o @ @ $ @ $ % $ % $ $ @ @ $ % & & % % % % % $ $ @ # % & "
};
