/* XPM */
static char *b8c057adbf3b41e6fe8db5ceb0d985f9tnbgDt6zNA3lV7kh[] = {
/* columns rows colors chars-per-pixel */
"50 50 162 2 ",
"   c None",
".  c #63331E",
"X  c #6D351E",
"o  c #7D351C",
"O  c #583E29",
"+  c #653622",
"@  c #683620",
"#  c #643926",
"$  c #703720",
"%  c #7E3F23",
"&  c #713E28",
"*  c #785941",
"=  c #82371C",
"-  c #85391D",
";  c #8B3A1E",
":  c #97371A",
">  c #953A1D",
",  c #9B3C1E",
"<  c #A13F1F",
"1  c #853B20",
"2  c #8C3E21",
"3  c #943E24",
"4  c #9C3E21",
"5  c #A4401F",
"6  c #8A4024",
"7  c #944125",
"8  c #9C4125",
"9  c #9C4329",
"0  c #9E492A",
"q  c #A34223",
"w  c #AB4524",
"e  c #A24927",
"r  c #AB4926",
"t  c #A3452A",
"y  c #A94629",
"u  c #A34B2B",
"i  c #AC4B2B",
"p  c #B14623",
"a  c #B34A26",
"s  c #BB4B27",
"d  c #B44C2B",
"f  c #BC4D2A",
"g  c #A6512E",
"h  c #AA512D",
"j  c #B6512C",
"k  c #BC522D",
"l  c #A75230",
"z  c #AF5C37",
"x  c #B35333",
"c  c #BC5433",
"v  c #B75A35",
"b  c #BC5A35",
"n  c #BE5E3A",
"m  c #BF6038",
"M  c #C04E29",
"N  c #C3532D",
"B  c #CA562D",
"V  c #CE5A2E",
"C  c #C35532",
"Z  c #C95530",
"A  c #C55934",
"S  c #CB5B33",
"D  c #C35C3A",
"F  c #CC5E39",
"G  c #D25D31",
"H  c #D05F3A",
"J  c #C46136",
"K  c #C4623A",
"L  c #CD623A",
"P  c #D66234",
"I  c #D96436",
"U  c #DB6937",
"Y  c #D4643C",
"T  c #DB663A",
"R  c #D56A3E",
"E  c #DF6E3D",
"W  c #DE6C3E",
"Q  c #DC6E3D",
"!  c #DD6B3C",
"~  c #DF703F",
"^  c #DF703E",
"/  c #E16F39",
"(  c #E06F3B",
")  c #E06F3E",
"_  c #E16E3C",
"`  c #E0703D",
"'  c #E0723D",
"]  c #E2713E",
"[  c #8B5641",
"{  c #905742",
"}  c #945942",
"|  c #9D5E45",
" . c #92664D",
".. c #996049",
"X. c #A26B49",
"o. c #AF7856",
"O. c #BD7854",
"+. c #C46041",
"@. c #CA6645",
"#. c #CF6E4F",
"$. c #D66741",
"%. c #D76840",
"&. c #D76941",
"*. c #D96941",
"=. c #D86942",
"-. c #D96A43",
";. c #DA6B43",
":. c #D96C41",
">. c #DB6E41",
",. c #DA6E42",
"<. c #DC6C40",
"1. c #DB6C42",
"2. c #D26D4A",
"3. c #DF7241",
"4. c #D57453",
"5. c #D7795B",
"6. c #DA7B5B",
"7. c #E17041",
"8. c #E07340",
"9. c #E37441",
"0. c #E37843",
"q. c #E67840",
"w. c #E67842",
"e. c #E57A43",
"r. c #E67A43",
"t. c #E57A44",
"y. c #E57A44",
"u. c #E87E46",
"i. c #D97F63",
"p. c #EA8149",
"a. c #DD8163",
"s. c #DD8569",
"d. c #DF8A6C",
"f. c #CA8E74",
"g. c #D88F75",
"h. c #DF8C74",
"j. c #D6947B",
"k. c #DF967D",
"l. c #E0916D",
"z. c #E39474",
"x. c #E1947A",
"c. c #E49B7E",
"v. c #DF9880",
"b. c #E19983",
"n. c #E59F85",
"m. c #E59E84",
"M. c #E59C82",
"N. c #E7A182",
"B. c #E7A386",
"V. c #E6A084",
"C. c #E7A184",
"Z. c #E8A386",
"A. c #EAA586",
"S. c #E5A58D",
"D. c #EAA78D",
"F. c #E5A791",
"G. c #E5A995",
"H. c #E9AE99",
"J. c #EBB098",
"K. c #ECB399",
"L. c #EDB59B",
"P. c #EBB19B",
/* pixels */
"    g.n n K                                                                                         ",
"    k.A C A c N N Z A D                                                                             ",
"    v.F B A f a s s s f f M C C C D D c t 3 2 1 1 = o o o = = 1 - - - ; ; ; ; ; ; > 3 6 3 > 7 6 1 0 ",
"    b.L S S N f a a a s f f f N N C H F D                                                       + 7 ",
"    V.L P L B k j k N N M s f k c C H H                                                         # 7 ",
"    V.L P P P j r B N B N Z Z f c Z Y H                                                         # 6 ",
"    B.R P L b k B P V V G P B 8 x C Y F                                                         # 7 ",
"    B.R U P v Q U P P V I ( G s 9 v H H                                                         # 7 ",
"  J.B.3.R Y b W ^ U G G T ` I P r x Y @.                                                        # u ",
"  K.B.:.Q R v 3.^ U P P T _ _ I j b Y $.                                                        # 0 ",
"  K.A.,.Q R v 0.' E U U _ ) _ H j v %.-.                                                        # 0 ",
"  L.A.,.R R K e.q.E Q U _ 7.7._ j b %.;.                                                        + 0 ",
"  L.N.Q <.%.m 0.u./ E U ] 3.7._ j m R <.                                                        @ 0 ",
"  L.m.:.W R K u.u.^ ( ` ] 8.<._ j b <.<.                                                        @ 0 ",
"  P.n.,.<.R K 0.' ' ' ] ] 9.9.T k b :.;.                                                        + 0 ",
"  K.n.R W R K u.' ' ' ` ] 8.7._ j n :.;.                                                        + 0 ",
"  K.M.W ) R K p.w._ _ _ _ _ _ T j m ,.:.                                                        . 0 ",
"  G.c.R ] R J p.w._ q._ _ _ _ T k m <.:.                                                        + 0 ",
"  G.c.:.<.R J p.w.7.q._ _ _ 7.T j D <.;.                                                        + 0 ",
"  G.c.,.7.R K u.w.7._ T T _ T T j K 1.;.                                                        + 0 ",
"  G.c.,.W R K u.7.] q._ I T _ I j K 7.;.                                                        + 0 ",
"  F.x.Y W T J p.7._ _ _ I T T I a K 7.1.                                                        + g ",
"  F.x.U T Y S q._ ] _ I G T H G w m <.1.                                                        + g ",
"  F.z.I P Y b I G G G G Z G Z Z a b R <.                                                        + g ",
"  S.z.I I Y N V Z Z Z Z C Z C C c C Y <.                                                        + g ",
"  D.l.I U Y C N M f M N N C C c c C $.-.                                                        # l ",
"  f.l.b z @.D c f s f f f f x d f c $.<.                                                        # l ",
"*  .O.% O X.o.d d y s f k k f c c c $.;.                                                        X g ",
"  j.s.k b A x s f f s M M f M N c c $.-.                                                        X h ",
"  c.s.B V S d k M s d p d d d d t C $.-.                                                        X h ",
"  x.a.N B k i a w w q y y y 5 q - n $.=.                                                        X h ",
"  x.a.B B j r w w p p p p p w w 2 c -.=.                                                        X r ",
"  h.6.V V N r a 5 a w p a r r r > v -.:.                                                        X r ",
"  d.6.V V N e 5 5 5 q q q q q q - x Y Y                                                         X r ",
"  s.4.V V k q q 5 5 r q q q q 5 ; d Y $.                                                        X e ",
"  i.4.B B k q 5 5 5 5 5 8 < 8 < = x F Y                                                         X e ",
"  5.2.B N k e < , < < 8 5 q 4 < = i H L                                                         X e ",
"  4.2.N N d q 5 < < 4 4 < 8 , , = i F L                                                         X e ",
"  #.@.N k d q , , , , , , , 7 , o y F F                                                         X 0 ",
"  @.K N N a 8 , , , , , , , , , % u F F                                                         X e ",
"  +.D C Z y 3 : > : : , < 4 4 t t i D D                                                         X u ",
"  +.F M M d 8 4 q q t q q t t i i x A A                                                         X 0 ",
"  n C c M i t t q w y y t i i i i i C c                                                         . 0 ",
"  b C c M d t y i y i t i t t t t i c c                                                         . 9 ",
"  c c j f y t t t l t l t t t t t t k c                                                         . 6 ",
"  x j j c i 9 t t 3 3 3 3 3 3 3 3 9 d i ....} [ [ [ [ [ [ [ [ [ { [ { { } } } } } } } | | | ..} & % ",
"  x j d f i t t 3 3 3 3 3 3 3 t                                                                     ",
"  i x f C i 9 3 3 3 3 9                                                                             ",
"  i d d d i 3 3                                                                                     ",
"  x i i d                                                                                           "
};
