/* XPM */
static char *_b4bd492461f41ffe1e0d299e8724332uazBwLGqfYEA1w0D[] = {
/* columns rows colors chars-per-pixel */
"50 50 114 2 ",
"   c None",
".  c #6E3F2F",
"X  c #723E2F",
"o  c #753D2F",
"O  c #773D2F",
"+  c #743E2F",
"@  c #7D3B2F",
"#  c #783C2F",
"$  c #783D2F",
"%  c #065F33",
"&  c #075F33",
"*  c #095E33",
"=  c #085F33",
"-  c #0A5E33",
";  c #0B5E33",
":  c #0D5D32",
">  c #135B32",
",  c #145B32",
"<  c #165B32",
"1  c #125C32",
"2  c #135C32",
"3  c #1A5932",
"4  c #1B5932",
"5  c #185A32",
"6  c #195A32",
"7  c #1E5832",
"8  c #1F5832",
"9  c #3B4F31",
"0  c #3C4F31",
"q  c #3E4E31",
"w  c #215732",
"e  c #225732",
"r  c #255632",
"t  c #265632",
"y  c #2F5331",
"u  c #2A5431",
"i  c #2A5432",
"p  c #2C5431",
"a  c #305331",
"s  c #315331",
"d  c #355131",
"f  c #375131",
"g  c #385031",
"h  c #3A5031",
"j  c #3B5031",
"k  c #006133",
"l  c #016133",
"z  c #036033",
"x  c #026133",
"c  c #036133",
"v  c #006233",
"b  c #046033",
"n  c #056033",
"m  c #424D31",
"M  c #444C31",
"N  c #464C31",
"B  c #474C31",
"V  c #484B30",
"C  c #484B31",
"Z  c #494B31",
"A  c #4B4A30",
"S  c #4D4A30",
"D  c #544730",
"F  c #5C4530",
"G  c #5D4530",
"H  c #5E4430",
"J  c #5F4430",
"K  c #504930",
"L  c #524830",
"P  c #534830",
"I  c #6A412F",
"U  c #68422F",
"Y  c #6E402F",
"T  c #6C4030",
"R  c #8C362E",
"E  c #8D362E",
"W  c #8D362F",
"Q  c #83392F",
"!  c #813A2F",
"~  c #84392F",
"^  c #85392F",
"/  c #86382F",
"(  c #97332E",
")  c #98332E",
"_  c #9B322E",
"`  c #9D312E",
"'  c #9E312E",
"]  c #9F312E",
"[  c #A72E2E",
"{  c #AA2D2E",
"}  c #A82E2E",
"|  c #AC2D2D",
" . c #AF2C2D",
".. c #BD272D",
"X. c #BE272D",
"o. c #BF272D",
"O. c #B32A2D",
"+. c #B7292D",
"@. c #B42A2D",
"#. c #B62A2D",
"$. c #B72A2D",
"%. c #B8292D",
"&. c #B9292D",
"*. c #BB282D",
"=. c #BC282D",
"-. c #BD282D",
";. c #A0302E",
":. c #A1302E",
">. c #A0312E",
",. c #A2302E",
"<. c #C1262D",
"1. c #C0272D",
"2. c #C1272D",
"3. c #C2262D",
/* pixels */
"                                        X.1.X.1.X.1.X.1.X.X.                                        ",
"                                X.X.X.X.X.1.1.X.1.X.1.X.1.X.X.1.X.X.                                ",
"                            X.1.1.X.1.X.1.X.1.X.X.1.X.1.1.X.1.X.1.X.1.X.                            ",
"                        X.X.1.X.X.1.X.1.X.1.X.1.1.X.1.X.X.1.X.1.X.1.X.X.X.X.                        ",
"                      1.X.1.X.1.1.X.1.X.1.X.1.X.1.X.1.X.1.X.1.X.X.1.X.1.X.1.X.                      ",
"                  X.1.X.1.X.1.X.X.1.X.1.X.1.X.1.X.1.X.1.X.1.X.1.1.X.1.X.1.X.1.1.X.                  ",
"                X.X.X.1.X.1.X.1.1.X.1.X.1.X.1.X.1.X.1.X.1.X.1.X.X.1.X.1.X.1.1.X.1.X.                ",
"              X.1.X.1.X.1.X.1.X.X.1.X.1.X.1.X.1.X.1.X.1.X.1.X.1.1.X.1.X.1.X.X.1.X.1.X.              ",
"            X.1.X.1.X.1.X.1.X.1.1.X.1.X.1.X.1.X.1.X.X.1.X.1.X.1.1.X.1.X.1.X.1.X.1.X.1.X.            ",
"          X.1.X.1.X.1.X.1.X.1.X.X.1.X.1.X.1.X.1.X.1.1.X.1.X.1.X.X.1.X.1.X.1.X.1.X.1.X.X.X.          ",
"          X.X.1.X.1.X.1.X.1.X.1.1.X.1.X.1.X.1.X.1.X.1.1.X.1.X.1.1.X.1.X.1.X.1.X.1.X.X.1.1.          ",
"        1.X.1.X.1.X.1.X.1.X.1.X.X.1.X.1.X.1.X.1.[ [ 1.X.1.X.1.X.X.1.X.1.X.1.X.1.X.1.1.X.1.X.        ",
"      X.X.1.X.1.X.1.X.1.X.1.X.1.1.X.1.X.X.1.X.1.T T 1.1.X.1.X.1.1.X.1.X.1.X.1.X.1.X.1.X.X.1.X.      ",
"      1.1.X.1.X.1.X.1.X.1.X.1.X.X.1.X.1.1.X.1.+.g g +.1.1.X.1.X.X.1.X.1.X.1.X.1.X.1.X.1.1.X.X.      ",
"    X.X.X.1.X.1.X.1.X.1.X.1.X.1.1.X.1.X.X.1.1._ , , _ 1.X.1.X.1.1.X.1.X.1.X.1.X.1.X.1.X.X.1.X.X.    ",
"    X.1.1.X.1.X.1.X.1.X.1.X.1.X.X.1.X.1.1.1.1.Y z z Y 1.1.X.1.X.X.1.X.1.X.1.X.1.X.1.X.1.1.X.1.1.    ",
"  X.1.X.1.X.1.X.1.X.1.X.1.X.1.X.1.X.1.X.1.1.+.q z z q &.1.1.X.1.1.X.1.X.1.X.1.X.1.X.1.X.1.X.1.X.X.  ",
"  X.X.1.X.1.X.1.X.1.X.1.X.1.X.1.X.1.X.1.1.1._ 6 v v 6 _ 1.X.1.X.X.1.X.1.X.1.X.1.X.1.X.1.X.1.X.1.X.  ",
"  X.1.X.1.X.1.X.1.X.1.X.1.X.1.X.1.X.1.X.1.1.Y n 2 2 n Y 1.X.X.1.-.1.1.1.1.X.1.X.1.X.1.X.1.X.1.X.X.  ",
"  1.X.1.X.1.X.1.X.1.X.1.X.1.1.-.X.1.X.1.1.&.M z S S z m &.1.1.X.1.1.-.1.X.1.X.1.X.1.X.1.X.1.X.1.X.  ",
"X.X.1.X.1.X.1.X.1.X.X.X.-.-.1.-.1.X.-.1.1.>.6 n ^ ^ n 5 >.1.1.1.-.-.-.1.X.X.X.X.1.X.1.X.1.X.1.X.1.X.",
"X.1.X.1.X.1.X.1.X.1.&.Q H H H H H H F F F m n n S K n z m J F J F F F F F F Q &.X.1.X.1.X.1.X.1.X.1.",
"1.X.1.X.1.X.1.X.1.1.-._ M n z z z z v z z z z v z v v z z z z z z z z z % M ;.X.1.X.1.X.1.X.1.X.X.1.",
"X.1.X.1.X.1.X.1.X.1.1.1.O.U 2 z z ; g Z d n z d M M d n z d M g ; z z , U O.1.1.X.1.X.1.X.1.X.1.1.X.",
"1.X.1.X.1.X.1.X.X.1.X.1.1.X.W s n n M >.$ n w ,.-.-.>.w n + >.Z % z y W X.X.1.X.1.X.1.X.1.X.1.X.X.1.",
"X.1.X.1.X.1.X.1.1.X.1.X.X.X.1.} P n z u y v Z -.1.1.-.Z z u u z ; L [ X.X.1.X.1.X.1.X.1.X.1.X.1.1.X.",
"1.X.1.X.1.X.1.X.X.1.X.1.1.X.1.1.&.+ 7 v z z Y 3.1.-.1.+ n v v 7 $ &.1.1.1.X.1.X.1.X.1.X.1.X.1.X.X.1.",
"X.1.X.1.X.1.X.1.1.X.1.X.X.1.X.1.1.1.( y z v g _ 1.1._ j z z y ( X.1.1.X.X.1.X.1.X.1.X.1.X.1.X.1.1.X.",
"1.X.1.X.1.X.1.X.X.1.X.1.X.1.X.1.1.1.-.S z z v 7 $ $ w z v v A -.1.1.X.1.1.X.1.X.1.X.1.X.1.X.1.X.1.X.",
"X.1.X.1.X.1.X.1.1.X.1.X.1.X.1.X.-.1.} w n V u z ; n z y M n w } 1.1.1.X.X.1.X.1.X.1.X.1.X.1.X.1.X.X.",
"  X.1.X.1.X.1.X.X.1.X.1.X.1.1.1.-.1.Q n 6 >.+ n z z n + >.6 n Q 1.X.1.X.1.X.1.X.1.X.1.X.1.X.1.X.1.  ",
"  1.X.1.X.1.X.1.1.X.1.X.1.X.-.1.1.&.P z g U 6 z 1 1 z 6 U g v K -.1.X.1.X.1.X.1.X.1.X.1.X.1.X.1.X.  ",
"  X.X.X.X.1.X.1.X.1.X.1.X.1.X.1.1.} t k , * k s W W s z n 1 z t } 1.1.1.X.1.X.1.X.1.X.1.X.1.X.1.X.  ",
"  X.X.1.1.X.1.X.1.X.1.X.1.X.1.X.1./ ; k k * D } 1.1.} K ; z z n ^ 1.X.1.1.X.1.X.1.X.1.X.1.X.1.X.X.  ",
"    1.X.X.1.X.1.X.1.X.1.1.X.X.1.-.D k k w O &.1.1.X.1.&.+ 7 z z D -.1.X.X.1.X.1.X.1.X.1.1.X.X.1.    ",
"    X.1.1.X.1.X.1.X.1.X.X.1.X.1.| t k 9 _ -.-.1.X.1.1.1.-._ g z t | 1.1.1.X.1.X.1.X.1.X.X.1.X.X.    ",
"      X.1.X.X.1.1.X.1.X.1.X.1.1.^ 6 U  .1.1.X.1.1.X.1.X.1.1. .J 6 / 1.1.X.1.X.1.1.X.1.X.1.X.1.      ",
"      X.X.1.1.X.X.1.X.1.X.1.1.X.@ ^ +.X.1.X.1.X.X.1.X.1.X.1.1.*.^ @ X.1.1.X.1.X.X.1.X.1.X.1.X.      ",
"        1.1.X.1.1.X.1.X.1.X.X.X.+.X.1.1.X.1.X.1.1.X.1.X.1.X.1.1.X.+.X.X.X.1.X.1.1.X.1.X.1.X.        ",
"          X.1.X.X.1.X.1.X.1.X.1.1.1.X.X.1.X.1.X.X.1.X.1.X.1.X.1.1.1.X.1.1.X.1.X.X.1.X.1.X.          ",
"          X.1.X.1.X.X.1.X.1.X.1.X.1.X.1.X.1.X.1.X.1.X.1.X.1.X.1.1.X.1.X.1.X.1.X.1.X.1.X.X.          ",
"            X.1.X.1.1.X.1.X.1.X.1.X.1.X.1.X.1.X.1.X.1.X.1.X.1.X.X.1.X.1.X.1.X.1.X.1.X.X.            ",
"              X.1.1.X.1.X.1.X.1.X.1.X.1.X.1.X.1.X.1.X.1.X.1.X.1.1.X.1.X.1.X.1.X.1.1.X.              ",
"                X.X.1.X.1.X.1.X.1.X.1.X.1.X.1.X.1.X.1.X.1.X.1.X.X.1.X.1.X.1.X.1.X.X.                ",
"                  X.X.1.X.1.X.1.X.1.X.1.X.1.X.1.X.1.X.1.X.1.X.1.1.X.1.X.X.1.X.X.X.                  ",
"                      X.1.X.1.X.1.X.1.X.1.X.1.X.1.X.1.X.1.X.1.X.X.1.X.1.1.X.1.                      ",
"                        X.1.X.1.X.1.X.1.X.1.X.1.X.1.X.1.X.1.X.1.X.1.1.X.1.X.                        ",
"                            X.X.1.X.1.X.1.X.1.X.1.X.1.X.1.X.1.X.1.X.1.X.                            ",
"                                X.X.X.1.X.X.1.X.1.X.1.X.1.X.X.1.X.X.                                ",
"                                        X.1.X.1.X.1.X.1.1.X.                                        "
};
